<svg viewBox="0 -5 511.99952 511" xmlns="http://www.w3.org/2000/svg" width="70px" height="70px" style="fill:#6caaa8;">
<path d="m502.585938 159.59375c-4.242188-15.253906-24.066407-19.125-33.691407-6.535156-24.058593 31.472656-53.113281 57.546875-85.644531 77.484375l22.304688-42.109375c1.9375-3.660156.539062-8.199219-3.117188-10.136719-3.660156-1.9375-8.199219-.542969-10.140625 3.117187l-33.0625 62.421876c-24.179687 12.015624-49.925781 20.851562-76.699219 26.25l123.386719-196.742188 33.40625 19.285156-30.652344 57.867188c-1.9375 3.660156-.542969 8.199218 3.117188 10.136718 3.664062 1.941407 8.199219.542969 10.136719-3.117187l30.671874-57.90625c13.183594 4.433594 28.160157-.859375 35.394532-13.386719 8.238281-14.269531 3.332031-32.582031-10.9375-40.820312l-49.109375-28.351563c-14.269531-8.238281-32.578125-3.332031-40.816407 10.9375-7.226562 12.515625-4.339843 28.140625 6.109376 37.351563l-130.5 208.074218c-5.078126.691407-10.1875 1.265626-15.328126 1.710938-7.246093-35.335938-26.523437-76.625-44.667968-94.773438-7.058594-7.058593-15.210938-12.65625-24.222656-16.636718-3.789063-1.671875-8.214844.042968-9.886719 3.832031-1.675781 3.789063.042969 8.21875 3.832031 9.890625 7.308594 3.226562 13.929688 7.777344 19.671875 13.519531 15.472656 15.472657 33.171875 53.527344 40.128906 85.113281-10.664062.414063-21.355469.332032-33.066406-.417968l-7.308594-7.304688h10.089844c4.140625 0 7.5-3.359375 7.5-7.5s-3.359375-7.5-7.5-7.5h-25.085937l-25.386719-25.386718h27.324219c4.144531 0 7.5-3.355469 7.5-7.496094 0-4.144532-3.355469-7.5-7.5-7.5h-42.324219l-28.035157-28.035156c9.175782-7.199219 20.097657-11.5625 31.992188-12.707032 4.125-.394531 7.144531-4.058594 6.746094-8.183594-.394532-4.121093-4.050782-7.140624-8.179688-6.746093-15.167968 1.460937-29.542968 7.429687-41.210937 16.980469l-37.742188-37.738282c-2.929687-2.929687-7.675781-2.929687-10.605469 0-2.925781 2.929688-2.925781 7.675782 0 10.605469l37.734376 37.730469c-12.207032 14.941406-18.285157 34.136718-17.152344 53.480468-13.597656-7.429687-26.734375-15.902343-39.304688-25.421874-12.453125-9.429688-30.753906-.929688-30.753906 15.371093 0 102.148438 60.019531 191.265625 148.058594 232.15625-4.03125 4.257813-6.511719 9.996094-6.511719 16.308594 0 13.09375 10.648437 23.742187 23.742187 23.742187h181.351563c13.089844 0 23.742187-10.648437 23.742187-23.742187 0-6.25-2.433593-11.945313-6.398437-16.1875 114.191406-52.820313 172.039063-180.828125 138.601563-300.984375zm-102.464844-124.105469c4.101562-7.109375 13.222656-9.550781 20.332031-5.449219l49.105469 28.351563c7.125 4.113281 9.5625 13.207031 5.449218 20.332031-4.113281 7.121094-13.207031 9.5625-20.332031 5.449219-6.785156-3.917969 12.109375 6.988281-49.109375-28.351563-7.105468-4.105468-9.550781-13.226562-5.445312-20.332031zm-275.316406 226.253907v-39.277344l21.914062 21.914062v23.429688c-7.386719-1.757813-14.695312-3.777344-21.914062-6.066406zm36.914062-2.363282 13.875 13.878906c-4.648438-.652343-9.277344-1.410156-13.875-2.265624zm-63.847656-63.847656 11.9375 11.9375v49.085938c-7.984375-2.992188-15.84375-6.3125-23.570313-9.964844-3.839843-18.3125.410157-36.746094 11.632813-51.058594zm245.527344 257.492188h-126.417969c-4.140625 0-7.5 3.359374-7.5 7.5 0 4.140624 3.359375 7.5 7.5 7.5h129.660156c4.820313 0 8.742187 3.921874 8.742187 8.742187 0 4.824219-3.921874 8.746094-8.742187 8.746094h-181.351563c-4.820312 0-8.746093-3.921875-8.746093-8.746094 0-4.820313 3.921875-8.742187 8.746093-8.742187h16.695313c4.144531 0 7.5-3.359376 7.5-7.5 0-4.140626-3.355469-7.5-7.5-7.5h-13.101563c-90.421874-35.070313-153.886718-123.996094-153.886718-224.953126.003906-3.433593 3.972656-5.25 6.703125-3.183593 143.144531 108.378906 348.585937 81.863281 459.109375-62.71875 2.113281-2.761719 6.398437-1.898438 7.328125 1.449219 32.53125 116.898437-26.132813 243.535156-144.738281 289.40625zm0 0"/><path d="m208.554688 155.585938c27.839843 0 73.132812-18.40625 90.710937-35.984376 21.832031-21.828124 23.800781-55.984374 5.730469-79.382812l26.917968-26.917969c2.929688-2.929687 2.929688-7.675781 0-10.605469-2.925781-2.925781-7.675781-2.925781-10.605468 0l-26.917969 26.917969c-23.402344-18.066406-57.554687-16.097656-79.382813 5.730469-10.894531 10.898438-22.613281 33.027344-29.847656 56.375-4.925781 15.90625-11.355468 44.429688.972656 56.757812 5.269532 5.265626 13.488282 7.109376 22.421876 7.109376zm-9.066407-59.425782c6.46875-20.875 16.964844-41.050781 26.125-50.210937 15.988281-15.988281 40.609375-17.882813 58.058594-5.617188l-6.664063 6.664063h-42.175781c-4.140625 0-7.496093 3.359375-7.496093 7.5s3.355468 7.496094 7.496093 7.496094h27.179688l-12.597657 12.597656h-23.011718c-4.144532 0-7.5 3.359375-7.5 7.5s3.355468 7.5 7.5 7.5h8.015625l-25.648438 25.644531c-4.738281 4.738281-1.316406 12.800781 5.304688 12.800781 1.917969 0 3.835937-.730468 5.300781-2.195312l15.417969-15.417969v2.902344c0 4.140625 3.359375 7.496093 7.5 7.496093s7.5-3.355468 7.5-7.496093v-17.902344l10.734375-10.734375v15.746094c0 4.140625 3.359375 7.496094 7.5 7.496094 4.144531 0 7.5-3.355469 7.5-7.496094v-30.746094c12.445312-12.445312 6.398437-6.398438 18.75-18.75 12.273437 17.457031 10.34375 42.097656-5.617188 58.058594-9.160156 9.160156-29.335937 19.660156-50.207031 26.125-23.324219 7.226562-37.972656 6.492187-41.714844 2.75-3.742187-3.742188-4.476562-18.390625 2.75-41.710938zm0 0"/></svg>