<svg xmlns="http://www.w3.org/2000/svg" viewBox="0 0 216.64 66.64" width="145px">
<style>.cls-1{fill:#6caaa8;}</style>
<g id="Layer_2" data-name="Layer 2"><g id="Layer_1-2" data-name="Layer 1"><path class="cls-1" d="M68.71,20a2.62,2.62,0,0,0-4.6-.89A43,43,0,0,1,52.4,29.73L55.45,24a1,1,0,0,0-1.82-1l-4.52,8.53a42,42,0,0,1-10.48,3.59L55.5,8.24l4.56,2.64-4.19,7.91a1,1,0,1,0,1.82,1l4.19-7.92a4.08,4.08,0,0,0,3.34-7.41L58.51.55a4.09,4.09,0,0,0-4.75,6.6L35.92,35.6c-.69.09-1.39.17-2.09.23-1-4.83-3.63-10.48-6.11-13a11,11,0,0,0-3.31-2.27,1,1,0,1,0-.83,1.87,9.16,9.16,0,0,1,2.69,1.85c2.11,2.12,4.53,7.32,5.49,11.64a43.3,43.3,0,0,1-4.53-.06l-1-1h1.38a1,1,0,0,0,0-2H24.19l-3.48-3.47h3.74a1,1,0,1,0,0-2.05H18.66L14.83,23.5a8.32,8.32,0,0,1,4.37-1.74,1,1,0,0,0,.93-1.12A1,1,0,0,0,19,19.72,10.56,10.56,0,0,0,13.37,22L8.21,16.88a1,1,0,1,0-1.45,1.45l5.16,5.16A10.56,10.56,0,0,0,9.58,30.8,42.81,42.81,0,0,1,4.2,27.33,2.61,2.61,0,0,0,0,29.43,35,35,0,0,0,20.24,61.17a3.24,3.24,0,0,0,2.36,5.47H47.39a3.25,3.25,0,0,0,3.25-3.24,3.18,3.18,0,0,0-.88-2.21A35,35,0,0,0,68.71,20Zm-14-17a2,2,0,0,1,2.78-.75L64.2,6.2a2,2,0,1,1-2,3.52L55.45,5.85A2,2,0,0,1,54.7,3.07ZM17.06,34V28.63l3,3v3.2C19.05,34.59,18.05,34.31,17.06,34Zm5.05-.32L24,35.57c-.64-.08-1.27-.19-1.9-.3ZM13.38,25,15,26.58v6.71c-1.09-.41-2.16-.86-3.22-1.36A8.45,8.45,0,0,1,13.38,25ZM47,60.15H29.67a1,1,0,1,0,0,2.05H47.39a1.2,1.2,0,1,1,0,2.39H22.6a1.2,1.2,0,1,1,0-2.39h2.28a1,1,0,1,0,0-2.05H23.09a33.13,33.13,0,0,1-21-30.75A.57.57,0,0,1,3,29a44.91,44.91,0,0,0,62.77-8.57.57.57,0,0,1,1,.19A32.86,32.86,0,0,1,47,60.15Z"/><path class="cls-1" d="M98.22,5.57a6.51,6.51,0,0,1,2.12,2.35,6.88,6.88,0,0,1,0,6.44,6.58,6.58,0,0,1-2.12,2.37,5,5,0,0,1-2.79.87h-5V23A1.73,1.73,0,0,1,90,24.28a1.68,1.68,0,0,1-2.38,0A1.79,1.79,0,0,1,87.15,23V6.44A1.72,1.72,0,0,1,88.9,4.69h6.53A5,5,0,0,1,98.22,5.57Zm-1.71,8.3a3.35,3.35,0,0,0,.86-1.19,3.74,3.74,0,0,0,0-3.07,3.27,3.27,0,0,0-.86-1.17A1.65,1.65,0,0,0,95.43,8h-5v6.34h5A1.62,1.62,0,0,0,96.51,13.87Z"/><path class="cls-1" d="M116.63,9.93a1.7,1.7,0,0,1,.49,1.25v7.28a6.64,6.64,0,0,1-1.71,4.85,7.61,7.61,0,0,1-9.71,0A6.68,6.68,0,0,1,104,18.46V11.18a1.7,1.7,0,0,1,.49-1.25,1.61,1.61,0,0,1,1.23-.5,1.64,1.64,0,0,1,1.24.5,1.73,1.73,0,0,1,.48,1.25v7.28a3.74,3.74,0,0,0,.78,2.6,3,3,0,0,0,2.32.84,3,3,0,0,0,2.35-.84,3.74,3.74,0,0,0,.78-2.6V11.18a1.73,1.73,0,0,1,.48-1.25,1.64,1.64,0,0,1,1.24-.5A1.61,1.61,0,0,1,116.63,9.93Z"/><path class="cls-1" d="M130.27,9.63a1.46,1.46,0,0,1,.59,1.14,1.81,1.81,0,0,1-.46,1.34,1.54,1.54,0,0,1-1.09.44,2.76,2.76,0,0,1-1-.2l-.38-.11a2.27,2.27,0,0,0-.65-.09,2.5,2.5,0,0,0-1.43.46A3.41,3.41,0,0,0,124.73,14a5.2,5.2,0,0,0-.44,2.22V23a1.7,1.7,0,0,1-.49,1.25,1.64,1.64,0,0,1-1.23.5,1.68,1.68,0,0,1-1.24-.5,1.73,1.73,0,0,1-.48-1.25V11.18a1.73,1.73,0,0,1,.48-1.25,1.64,1.64,0,0,1,1.24-.5,1.61,1.61,0,0,1,1.23.5,1.7,1.7,0,0,1,.49,1.25v.37a4.36,4.36,0,0,1,1.89-1.79,5.83,5.83,0,0,1,2.64-.62A2.18,2.18,0,0,1,130.27,9.63Z"/><path class="cls-1" d="M145.89,17.86a1.83,1.83,0,0,1-1.21.43h-9.46a4.31,4.31,0,0,0,1.57,2.65,4.43,4.43,0,0,0,2.79,1,6.28,6.28,0,0,0,1.83-.21,5.34,5.34,0,0,0,1.05-.46l.53-.33a2.21,2.21,0,0,1,1-.26,1.47,1.47,0,0,1,1.47,1.44,1.79,1.79,0,0,1-.81,1.4,6.85,6.85,0,0,1-2.15,1.12,8.27,8.27,0,0,1-2.72.46,8.42,8.42,0,0,1-4.2-1,6.94,6.94,0,0,1-2.77-2.76,8.09,8.09,0,0,1-1-4,8.81,8.81,0,0,1,1-4.33,7.26,7.26,0,0,1,2.72-2.85,7,7,0,0,1,3.62-1,6.69,6.69,0,0,1,3.57,1A7.85,7.85,0,0,1,145.43,13a7.49,7.49,0,0,1,1,3.79A1.49,1.49,0,0,1,145.89,17.86Zm-10.64-2.44h7.51v-.2a3,3,0,0,0-1.18-2.06,3.68,3.68,0,0,0-2.4-.87A3.56,3.56,0,0,0,135.25,15.42Z"/><path class="cls-1" d="M103,57.64a1.65,1.65,0,0,1-.49,1.22,1.55,1.55,0,0,1-1.12.47,1.47,1.47,0,0,1-.93-.31,2,2,0,0,1-.65-.86l-1.49-3.47H89.81l-1.49,3.5a1.72,1.72,0,0,1-.62.84,1.65,1.65,0,0,1-2-.1,1.5,1.5,0,0,1-.39-1.09,1.79,1.79,0,0,1,.09-.54l7.14-17.15a1.83,1.83,0,0,1,.69-.89,1.48,1.48,0,0,1,1-.26,1.71,1.71,0,0,1,1.61,1.15l7,16.8A1.87,1.87,0,0,1,103,57.64ZM91.22,51.39H97l-2.89-6.71Z"/><path class="cls-1" d="M117.09,44.35a1.73,1.73,0,0,1,.49,1.24V57.78q0,3.73-2,5.44a8,8,0,0,1-5.36,1.71,13.81,13.81,0,0,1-2-.16,7.84,7.84,0,0,1-1.65-.42c-.93-.4-1.4-.95-1.4-1.66a1.71,1.71,0,0,1,.08-.46,1.8,1.8,0,0,1,.59-1,1.44,1.44,0,0,1,.91-.33,1.61,1.61,0,0,1,.54.09l.7.28a6.22,6.22,0,0,0,1.06.33,5,5,0,0,0,1.17.13,4.36,4.36,0,0,0,3-.87,3.94,3.94,0,0,0,1-3v-.29a5.56,5.56,0,0,1-4.64,1.87,4.92,4.92,0,0,1-2.64-.71,4.61,4.61,0,0,1-1.78-2,6.23,6.23,0,0,1-.63-2.85V45.59a1.69,1.69,0,0,1,.49-1.24,1.76,1.76,0,0,1,2.46,0,1.69,1.69,0,0,1,.49,1.24v7.35a3.54,3.54,0,0,0,.79,2.59,3.13,3.13,0,0,0,2.31.79,3,3,0,0,0,2.31-.87,3.58,3.58,0,0,0,.82-2.51V45.59a1.72,1.72,0,0,1,.48-1.24,1.78,1.78,0,0,1,2.47,0Z"/><path class="cls-1" d="M133.93,44.35a1.72,1.72,0,0,1,.48,1.24v7.29a6.7,6.7,0,0,1-1.7,4.85,7.61,7.61,0,0,1-9.71,0,6.69,6.69,0,0,1-1.69-4.85V45.59a1.72,1.72,0,0,1,.48-1.24,1.78,1.78,0,0,1,2.47,0,1.73,1.73,0,0,1,.49,1.24v7.29a3.79,3.79,0,0,0,.77,2.6,3,3,0,0,0,2.33.84,3.05,3.05,0,0,0,2.35-.84,3.79,3.79,0,0,0,.77-2.6V45.59a1.69,1.69,0,0,1,.49-1.24,1.62,1.62,0,0,1,1.23-.5A1.64,1.64,0,0,1,133.93,44.35Z"/><path class="cls-1" d="M147.56,44.05a1.41,1.41,0,0,1,.59,1.14,1.77,1.77,0,0,1-.46,1.34,1.53,1.53,0,0,1-1.09.44,2.94,2.94,0,0,1-1-.2l-.39-.11a2.2,2.2,0,0,0-.64-.09,2.53,2.53,0,0,0-1.44.46A3.26,3.26,0,0,0,142,48.42a5.05,5.05,0,0,0-.45,2.22v6.8a1.74,1.74,0,0,1-.48,1.25,1.68,1.68,0,0,1-1.24.5,1.66,1.66,0,0,1-1.23-.5,1.71,1.71,0,0,1-.49-1.25V45.59a1.69,1.69,0,0,1,.49-1.24,1.62,1.62,0,0,1,1.23-.5,1.64,1.64,0,0,1,1.24.5,1.72,1.72,0,0,1,.48,1.24V46a4.35,4.35,0,0,1,1.9-1.8,5.82,5.82,0,0,1,2.64-.61A2.15,2.15,0,0,1,147.56,44.05Z"/><path class="cls-1" d="M165,44.32a1.44,1.44,0,0,1,.46,1.1,2.26,2.26,0,0,1-.23.86L159.83,58.1a1.77,1.77,0,0,1-.59.77,1.55,1.55,0,0,1-.88.32l-.26,0a1.52,1.52,0,0,1-.9-.3,2,2,0,0,1-.64-.82l-5.34-11.82a2.31,2.31,0,0,1-.2-.92,1.4,1.4,0,0,1,.49-1,1.62,1.62,0,0,1,1.2-.47,1.9,1.9,0,0,1,1,.28,1.75,1.75,0,0,1,.68.81l4,9.06,3.93-9a1.86,1.86,0,0,1,.63-.83,1.43,1.43,0,0,1,.89-.26A1.58,1.58,0,0,1,165,44.32Z"/><path class="cls-1" d="M181.22,52.28a1.84,1.84,0,0,1-1.2.43h-9.47a4.33,4.33,0,0,0,1.58,2.65,4.41,4.41,0,0,0,2.78,1,6.31,6.31,0,0,0,1.84-.21,5,5,0,0,0,1-.46l.54-.33a2.21,2.21,0,0,1,1-.26,1.38,1.38,0,0,1,1,.43,1.36,1.36,0,0,1,.43,1,1.77,1.77,0,0,1-.8,1.41A7,7,0,0,1,177.81,59a8.6,8.6,0,0,1-2.73.46,8.48,8.48,0,0,1-4.2-1,6.94,6.94,0,0,1-2.76-2.77,7.92,7.92,0,0,1-1-4,8.8,8.8,0,0,1,1-4.33,7.35,7.35,0,0,1,2.73-2.85,7,7,0,0,1,3.61-1,6.69,6.69,0,0,1,3.57,1,7.77,7.77,0,0,1,2.68,2.78,7.49,7.49,0,0,1,1,3.79A1.47,1.47,0,0,1,181.22,52.28Zm-10.64-2.44h7.52v-.2a3,3,0,0,0-1.18-2.07,3.75,3.75,0,0,0-2.41-.86A3.56,3.56,0,0,0,170.58,49.84Z"/><path class="cls-1" d="M198.29,38.45a1.74,1.74,0,0,1,.49,1.26V57.44a1.75,1.75,0,0,1-.49,1.25,1.67,1.67,0,0,1-1.23.5,1.6,1.6,0,0,1-1.22-.49,1.77,1.77,0,0,1-.51-1.23,5.84,5.84,0,0,1-1.93,1.42,5.9,5.9,0,0,1-2.57.59,6.53,6.53,0,0,1-3.58-1,7.05,7.05,0,0,1-2.54-2.83,8.81,8.81,0,0,1-.93-4.1,9,9,0,0,1,.91-4.11,7,7,0,0,1,2.51-2.84,6.4,6.4,0,0,1,3.52-1,6.81,6.81,0,0,1,4.61,1.78V39.71a1.73,1.73,0,0,1,.49-1.24,1.64,1.64,0,0,1,1.24-.5A1.7,1.7,0,0,1,198.29,38.45ZM194.3,55a5.59,5.59,0,0,0,0-6.87,4,4,0,0,0-6.05,0,5.13,5.13,0,0,0-1.18,3.44A5.08,5.08,0,0,0,188.24,55a3.77,3.77,0,0,0,3,1.36A3.82,3.82,0,0,0,194.3,55Z"/><path class="cls-1" d="M216.16,44.05a1.7,1.7,0,0,1,.48,1.26V57.44a1.74,1.74,0,0,1-.48,1.25,1.68,1.68,0,0,1-1.24.5,1.63,1.63,0,0,1-1.22-.49,1.81,1.81,0,0,1-.5-1.23,6.2,6.2,0,0,1-4.5,2,6.56,6.56,0,0,1-3.59-1,7.1,7.1,0,0,1-2.53-2.83,8.7,8.7,0,0,1-.94-4.1,9,9,0,0,1,.92-4.11,7,7,0,0,1,2.51-2.84,6.37,6.37,0,0,1,3.51-1,6.81,6.81,0,0,1,4.62,1.78v0a1.75,1.75,0,0,1,.49-1.25,1.79,1.79,0,0,1,2.47,0Zm-4,10.91a5.59,5.59,0,0,0,0-6.87,4,4,0,0,0-6,0,5.63,5.63,0,0,0,0,6.87,4.07,4.07,0,0,0,6.07,0Z"/></g></g></svg>